# xmcd CD database file
#
# Track frame offsets:
#	150
#	35459
#	60275
#	98675
#	130102
#	162985
#
# Disc length: 2541 seconds
#
# Revision: 0
# Processed by: cddbd v1.4PL0 Copyright (c) Steve Scherf et al.
# Submitted via: CDex 1.51
#
DISCID=4009eb06
DTITLE=Hank Mobley - No Room For Squares
DYEAR=1963
DGENRE=Jazz
TTITLE0=Three Way Split
TTITLE1=Carolyn
TTITLE2=Up a Step
TTITLE3=No Room for Squares
TTITLE4=Me 'N You
TTITLE5=Old World Imports
EXTD=YEAR: 1963
EXTT0=
EXTT1=
EXTT2=
EXTT3=
EXTT4=
EXTT5=
PLAYORDER=
